<?xml version="1.0" encoding="UTF-8"?>
<!DOCTYPE svg PUBLIC "-//W3C//DTD SVG 1.1//EN" "http://www.w3.org/Graphics/SVG/1.1/DTD/svg11.dtd">
<!-- Creator: CorelDRAW -->
<svg xmlns="http://www.w3.org/2000/svg" xml:space="preserve" width="6.82666in" height="6.82666in" style="shape-rendering:geometricPrecision; text-rendering:geometricPrecision; image-rendering:optimizeQuality; fill-rule:evenodd; clip-rule:evenodd"
viewBox="0 0 6.82666 6.82666"
 xmlns:xlink="http://www.w3.org/1999/xlink">
 <defs>
  <style type="text/css">
   <![CDATA[
    .fil6 {fill:none}
    .fil4 {fill:#2D2D2D}
    .fil2 {fill:#BFBFBF}
    .fil3 {fill:#CFCFD0}
    .fil5 {fill:#202020;fill-rule:nonzero}
    .fil0 {fill:#767676;fill-rule:nonzero}
    .fil1 {fill:#8B8B8B;fill-rule:nonzero}
   ]]>
  </style>
 </defs>
 <g id="Layer_x0020_1">
  <metadata id="CorelCorpID_0Corel-Layer"/>
  <path class="fil0" d="M3.50969 1.00759c0.677457,0 1.29079,0.274602 1.73476,0.718575 0.443972,0.443969 0.718575,1.0573 0.718575,1.73476 0,0.25111 -0.0454803,0.494079 -0.128217,0.723465 -0.0867205,0.240433 -0.213894,0.464406 -0.372075,0.665858l0.000110236 8.66142e-005c-0.0239291,0.0304724 -0.0611299,0.0443898 -0.0969764,0.0399961 -0.381264,-0.0191339 -0.875209,0.0711496 -1.37553,0.230701 -0.523055,0.166799 -1.05061,0.408606 -1.46286,0.680079l0.000251969 0.000385827c-0.0281575,0.0185433 -0.0618661,0.0220079 -0.091626,0.0123622 -0.427142,-0.106681 -0.798287,-0.299272 -1.07511,-0.580232 -0.261146,-0.265043 -0.437169,-0.606976 -0.496063,-1.02756l-0.000244094 3.54331e-005c-0.00816142,-0.0583386 0.0325157,-0.11226 0.0908543,-0.120421 0.00138976,-0.000192913 0.00277953,-0.000354331 0.00416535,-0.000492126 0.427992,-0.0535433 1.02459,-0.234543 1.48463,-0.448969 0.366291,-0.170724 0.638693,-0.350732 0.638693,-0.479354 0,-0.15035 -0.162551,-0.325697 -0.448909,-0.472909 -0.276217,-0.141996 -0.660677,-0.25026 -1.12428,-0.280996l0.00666535 -0.106252 -0.00705906 0.106433c-0.0587795,-0.00389764 -0.103272,-0.0547126 -0.099374,-0.113492 0.00160236,-0.0241417 0.011122,-0.0458701 0.0258543,-0.0628268 0.261472,-0.359933 0.593193,-0.672217 0.960555,-0.890154 0.348028,-0.206465 0.728606,-0.329079 1.11322,-0.329079z"/>
  <path class="fil1" d="M4.05334 2.88c0,-0.0589094 -0.0477598,-0.106669 -0.106669,-0.106669 -0.0589094,0 -0.106669,0.0477598 -0.106669,0.106669l0 0.586661c0,0.0589094 0.0477598,0.106669 0.106669,0.106669 0.0589094,0 0.106669,-0.0477598 0.106669,-0.106669l0 -0.586661z"/>
  <path class="fil1" d="M4.37335 2.88c0,-0.0589094 -0.0477598,-0.106669 -0.106669,-0.106669 -0.0589094,0 -0.106669,0.0477598 -0.106669,0.106669l0 0.533331c0,0.0589094 0.0477598,0.106669 0.106669,0.106669 0.0589094,0 0.106669,-0.0477598 0.106669,-0.106669l0 -0.533331z"/>
  <path class="fil1" d="M3.73333 2.88c0,-0.0589094 -0.0477598,-0.106669 -0.106669,-0.106669 -0.0589094,0 -0.106669,0.0477598 -0.106669,0.106669l0 0.693327c0,0.0589094 0.0477598,0.106669 0.106669,0.106669 0.0589094,0 0.106669,-0.0477598 0.106669,-0.106669l0 -0.693327z"/>
  <path class="fil2" d="M2.44432 3.63622c0.366291,-0.170724 0.638693,-0.350732 0.638693,-0.479354 0,-0.15035 -0.162551,-0.325697 -0.448909,-0.472909 -0.263996,-0.135713 -0.62687,-0.240614 -1.06322,-0.276465 -0.235776,0.238717 -0.3725,0.508909 -0.458528,0.800303 -0.0810591,0.274567 -0.118335,0.570472 -0.150217,0.877087 0.427815,-0.0539252 1.02302,-0.234646 1.48218,-0.448661z"/>
  <path class="fil3" d="M2.41801 2.58856c-0.0362362,-0.0137047 -0.0737441,-0.0268543 -0.112441,-0.0394055 -0.136563,0.266134 -0.396453,0.823039 -0.396453,0.823039l0.508894 -0.783634zm-0.432772 0.254791l-0.440705 1.03766 0.256409 -0.713138 0.184295 -0.32452z"/>
  <path class="fil4" d="M2.52747 5.80111c0.412244,-0.271472 0.939803,-0.51328 1.46286,-0.680079 0.500323,-0.159551 0.994268,-0.249835 1.37553,-0.230701 0.0358465,0.0043937 0.0730472,-0.00952362 0.0969764,-0.0399961l-0.000110236 -8.66142e-005c0.0629803,-0.0802087 0.121043,-0.163988 0.173598,-0.250957 -1.30283,-0.0205551 -2.43493,0.2285 -3.41235,1.15293 0.0689764,0.0230197 0.139748,0.043563 0.212126,0.0616417 0.0297598,0.00964567 0.0634685,0.0061811 0.091626,-0.0123622l-0.000251969 -0.000385827z"/>
  <path class="fil5" d="M0.95798 4.05194c-0.018189,0.00229921 -0.0310748,0.0189173 -0.0287756,0.0371063 0.00229921,0.018189 0.0189173,0.0310748 0.0371063,0.0287756 0.215843,-0.0272047 0.472945,-0.0860709 0.733378,-0.164906 0.261579,-0.0791811 0.527264,-0.178618 0.758697,-0.286488 0.194331,-0.0905748 0.36302,-0.184165 0.479972,-0.271937 0.111803,-0.0839094 0.177992,-0.165177 0.177992,-0.237626 0,-0.0844055 -0.0444016,-0.17426 -0.127866,-0.262185 -0.0788898,-0.0831063 -0.193587,-0.165453 -0.339146,-0.24028 -0.138831,-0.0713661 -0.3045,-0.134319 -0.49337,-0.183429 -0.175331,-0.0455866 -0.370476,-0.0792638 -0.582476,-0.0966811 -0.0183346,-0.00143701 -0.0343661,0.0122638 -0.0358031,0.0305984 -0.00143701,0.0183346 0.0122638,0.0343661 0.0305984,0.0358031 0.208508,0.0171299 0.399764,0.0500787 0.571012,0.0946024 0.183815,0.0477953 0.344839,0.108953 0.479575,0.178217 0.13887,0.0713898 0.247539,0.149157 0.321437,0.227004 0.0713937,0.0752087 0.10937,0.149394 0.10937,0.21635 0,0.0494764 -0.0562126,0.113236 -0.151165,0.1845 -0.112516,0.0844449 -0.277232,0.175614 -0.468256,0.264646 -0.228563,0.106531 -0.491154,0.204799 -0.749839,0.283102 -0.257917,0.0780709 -0.511256,0.136209 -0.722441,0.162827z"/>
  <rect class="fil6" width="6.82666" height="6.82666"/>
 </g>
</svg>
