<?xml version="1.0" encoding="UTF-8"?>
<!-- Uploaded to: SVG Find, www.svgfind.com, Generator: SVG Find Mixer Tools -->
<svg fill="#000000" width="800px" height="800px" version="1.1" viewBox="144 144 512 512" xmlns="http://www.w3.org/2000/svg">
 <path d="m592.24 504.77-48.449-35.75c-7.9922-5.9102-19.742-5.3633-27.176 1.2617-3.5781 3.1953-5.6953 7.5977-5.9609 12.391-0.26172 4.7969 1.3594 9.4062 4.5703 12.977 4.9805 5.5508 9.9844 11.316 14.871 17.129 2.625 3.1289 4.2852 6.957 4.9297 11.391 0.48438 3.332-0.4375 6.543-2.6055 9.0508-3.3711 3.8906-8.9727 5.1602-13.711 2.8555l-108.25-52.668c-3.0234-1.4688-5.2344-4.1836-6.0586-7.4414-0.82813-3.2617-0.17969-6.6992 1.7773-9.4336l25.438-35.492c3.7773-5.2852 11.926-6.3672 16.973-2.1719l27.457 22.863c7.0586 5.875 17.879 6.1914 25.258 0.71875 3.8047-2.8203 6.1641-7.1406 6.4609-11.863 0.30078-4.7148-1.4805-9.2969-4.8906-12.57l-4.1875-4.0195c-45.387-43.57-191.25-183.58-205.16-196.95-14.438-13.883-41.305-39.727-72.004-39.727-3.2031 0-6.4102 0.28516-9.5312 0.85156-14.715 2.6602-24.133 10.551-25.844 21.648-2.0742 13.445 7.9609 28.5 24.969 37.457 18.734 9.8672 42.527 32.344 55.043 44.859 6.4609 6.4609 14.652 10.695 23.691 12.242l14.016 2.3984c9.7617 1.6719 18.785 6.6406 25.406 13.984 11.051 12.254 28.23 31.348 43.113 48.137 10.383 11.707 15.062 21.254 14.301 29.188-0.69531 7.25-5.8984 14.238-16.879 22.66-9.1094 6.9844-26.062 16.887-49.02 28.633-16.957 8.6719-24.027 29.035-16.102 46.363 4.1914 9.1719 11.68 16.234 21.078 19.891l85.203 33.145-1.8438 4.8086-41.906-16.086-11.191-4.2891 10.305 13.289 4.7461-1.9141 41.055 15.758 3.7109-9.668 154.35 60.039c3.3438 1.3008 6.8438 1.9648 10.387 1.9648 14.152 0 26.336-10.57 28.348-24.59l4.6406-32.355c2.8203-19.645-5.3516-39.172-21.324-50.965zm10.969 49.484-4.6406 32.355c-1.2773 8.9023-9.0078 15.613-17.992 15.613-2.2422 0-4.4648-0.42188-6.5977-1.2539l-244.42-95.082c-6.8438-2.6641-12.297-7.8125-15.355-14.492-5.5859-12.223-0.60156-26.586 11.352-32.703 16.398-8.3867 38.492-20.34 50.621-29.645 13.477-10.336 19.934-19.574 20.93-29.961 1.0664-11.133-4.3008-22.93-16.891-37.125-14.902-16.809-32.102-35.93-43.176-48.203-8.1875-9.0781-19.34-15.215-31.402-17.289l-14.016-2.3984c-6.8945-1.1797-13.141-4.4062-18.062-9.3281-12.93-12.938-37.609-36.207-57.566-46.719-12.855-6.7734-20.879-17.715-19.504-26.609 1-6.5078 7.1719-11.109 17.363-12.953 2.5078-0.45312 5.0898-0.68359 7.6719-0.68359 26.484 0 51.379 23.941 64.754 36.805 13.902 13.371 159.77 153.39 205.16 196.96l4.1875 4.0195c1.1992 1.1523 1.8008 2.6992 1.6992 4.3594-0.10547 1.6641-0.90234 3.1289-2.2461 4.1211-3.6211 2.6719-8.9023 2.5156-12.348-0.35156l-27.457-22.859c-3.9688-3.3086-8.9922-5.1328-14.152-5.1328-7.1328 0-13.867 3.457-18.012 9.25l-25.434 35.492c-3.7578 5.2461-5.0039 11.84-3.4219 18.094 1.5898 6.2539 5.8203 11.457 11.625 14.281l108.25 52.668c8.9023 4.332 19.801 1.9844 26.199-5.4219 4.1836-4.8359 5.9766-11.02 5.0391-17.398-0.92578-6.3828-3.3711-11.973-7.2656-16.609-4.9609-5.9023-10.039-11.754-15.098-17.391-1.3438-1.4922-2.0156-3.4141-1.9102-5.4141 0.10547-1.9961 0.99219-3.832 2.4805-5.1602 3.8242-3.4102 9.8711-3.6953 14-0.64844l48.449 35.75c12.875 9.4961 19.457 25.23 17.184 41.062z"/>
</svg>