<?xml version="1.0" encoding="UTF-8"?>
<!-- Uploaded to: SVG Find, www.svgfind.com, Generator: SVG Find Mixer Tools -->
<svg fill="#000000" width="800px" height="800px" version="1.1" viewBox="144 144 512 512" xmlns="http://www.w3.org/2000/svg">
 <path d="m607.33 256.32c-0.86719-5.9883-4.0117-11.277-8.8594-14.898l-68.246-50.961c-8.8984-6.6484-22.047-5.9844-30.227 1.5117l-95.902 87.793c-6.2812 5.7461-12.043 12.117-17.129 18.934l-186.95 250.34c-9.543 12.789-11.723 35.879 3.0547 53.488 6.1797 7.3672 15.277 11.59 24.965 11.59 10.621 0 20.352-4.875 26.695-13.371l62.926-84.258c3.3945-4.5469 7.9727-7.2617 12.258-7.2617 5.9766 0 10.234 5.3477 12.75 9.8359 1.2227 2.1758 2.4531 4.5273 3.7383 6.9648 8.5586 16.277 20.273 38.566 44.43 38.566 3.1953 0 6.5469-0.40234 9.9727-1.1953 19.266-4.4766 35.84-19.863 41.23-38.297 4.5586-15.598 0.55859-30.855-11.27-42.973-11.613-11.887-32.039-21.605-60.711-28.887-6.7383-1.7109-11.91-6.4727-14.184-13.062-2.2578-6.5391-1.082-13.711 3.1406-19.184l123.76-160.46c5.0078-6.4961 12.594-10.223 20.809-10.223 5.6836 0 11.109 1.8047 15.676 5.2188 6.2461 4.6602 10.074 11.797 10.512 19.574 0.42969 7.7734-2.582 15.293-8.2656 20.617l-91.668 85.891c-8.0625 7.5508-12.328 18.215-11.715 29.242 0.61719 11.031 6.0469 21.148 14.895 27.758 6.4883 4.8438 14.18 7.4023 22.25 7.4023 11.707 0 22.863-5.5938 29.852-14.957l32.934-44.098 4.3242 3.1367-26.375 36.371-7.043 9.7109 15.512-6.5312-0.625-5.082 25.84-35.633-8.5039-6.1641 81.875-109.64c3.6289-4.8555 5.1406-10.824 4.2734-16.812zm-12.652 10.539-117.95 157.93c-5.0977 6.832-12.922 10.75-21.465 10.75-5.7969 0-11.324-1.8398-15.984-5.3203-6.3633-4.75-10.266-12.023-10.707-19.953-0.44531-7.9297 2.6289-15.59 8.418-21.02l91.664-85.883c7.9531-7.4492 12.164-17.961 11.559-28.84-0.60156-10.879-5.9609-20.859-14.691-27.379-6.3945-4.7734-13.984-7.3008-21.945-7.3008-11.488 0-22.094 5.2109-29.102 14.297l-123.76 160.46c-6.3789 8.2734-8.1523 19.113-4.7422 28.996 3.3984 9.8359 11.441 17.234 21.504 19.789 26.402 6.7031 45.699 15.715 55.793 26.055 11.629 11.906 11.16 24.367 8.7148 32.719-4.293 14.688-18.09 27.449-33.555 31.039-2.6445 0.61328-5.2031 0.92578-7.6016 0.92578-17.828 0-27.043-17.516-35.164-32.973-1.3281-2.5234-2.6055-4.957-3.875-7.2148-7.4062-13.211-16.891-15.184-21.879-15.184-7.5703 0-15.289 4.2852-20.648 11.469l-62.922 84.258c-4.3516 5.8242-11.027 9.1641-18.309 9.1641-6.582 0-12.758-2.8633-16.949-7.8555-10.902-12.992-9.9258-30.789-2.6836-40.492l186.94-250.34c4.6992-6.2891 10.02-12.164 15.812-17.469l95.906-87.801c2.4492-2.2422 5.6289-3.4805 8.957-3.4805 2.8828 0 5.6211 0.91406 7.9336 2.6367l68.246 50.961c2.6055 1.9453 4.3008 4.793 4.7656 8.0117 0.47266 3.2227-0.34766 6.4336-2.2891 9.0391z"/>
</svg>