<?xml version="1.0" encoding="UTF-8"?>
<!-- Uploaded to: SVG Find, www.svgfind.com, Generator: SVG Find Mixer Tools -->
<svg fill="#000000" width="800px" height="800px" version="1.1" viewBox="144 144 512 512" xmlns="http://www.w3.org/2000/svg">
 <path d="m613.32 579.38c-12.25-45.133-33.379-123.48-37.234-141.16-4.5195-20.715-23.16-32.234-36.785-39.094-2.75-1.3867-5.8242-2.1172-8.8867-2.1172-7.3906 0-14.129 4.0664-17.578 10.613l-6.2148 11.797c-1.4023 2.6602-4.0352 4.2422-7.0469 4.2422-2.6172 0-4.9844-1.2383-6.4883-3.3945-21.531-30.848-72.793-104.49-83.82-122-6.7344-10.688-9.0664-20.656-6.5664-28.074 1.793-5.3164 6.1055-9.3906 12.488-11.789 6.0977-2.2891 17.074-3.6406 31.746-3.9062l0.53516-0.003906c13.594 0 25.133 9.2656 28.059 22.527l5.582 25.348c1.0469 4.7617 4.5859 8.6289 9.2383 10.09 5.6758 1.7852 10.031 6.5 11.371 12.297l7.7695 33.625c2.5312 10.957 12.148 18.613 23.387 18.613 1.6289 0 3.2695-0.16797 4.8828-0.50391 5.5508-1.1484 10.277-4.4258 13.301-9.2188 3.0273-4.793 3.9492-10.465 2.6055-15.965l-23.637-96.598c-9.1367-37.328-42.789-63.195-81.449-62.098-67.176 1.8828-182.79 5.1992-202.36 6.2227-29.727 1.5586-40.789 8.5352-49.305 31.117-3.7812 10.027-2.3867 21.543 3.8164 31.598 5.9805 9.6797 15.535 16.531 24.348 17.453 8.3438 0.875 22.047 1.5352 32.074 1.9336 8.7461 0.38672 17.32-1.8086 24.797-6.1719l16.543-9.6484c5.2539-3.0625 11.223-4.6797 17.277-4.6797 11.156 0 21.648 5.4375 28.07 14.547 14.035 19.918 38.969 55.336 48.223 68.742 3.4297 4.9609 4.6211 11.09 3.543 18.227-1.3086 8.7227-8.7656 13.285-15.461 13.285-3.5234 0-6.8711-1.2031-9.6836-3.4766l-71.398-57.734c-6.8086-5.5-15.285-8.7422-23.863-9.1289-3.75-0.16797-7.4062-0.24609-10.977-0.24609-21.516 0-41.969 2.8906-60.781 8.5859-9.7812 2.9609-16.465 11.137-17.449 21.34-0.98438 10.277 4.0664 19.645 13.184 24.449l283.02 149.12-2.4141 4.6523-39.438-20.473-10.531-5.4648 8.6602 14.219 4.8789-1.3555 38.637 20.059 4.7852-9.2188 23.852 12.566c9.582 5.0469 13.578 9.2891 15.242 11.953 1.4922 2.3945 4.418 6.4531 8.4727 12.062 7.0156 9.7188 16.629 23.031 26.465 38.266 4.5234 7 10.992 13.215 19.223 18.473 3.6133 2.3086 7.7188 3.5312 11.859 3.5312 6.8516 0 13.473-3.3086 17.719-8.8594 4.1875-5.4609 5.5352-12.453 3.707-19.188zm-11.918 12.898c-3.6758 4.8047-10.52 6.2578-15.785 2.8906-6.9648-4.4531-12.383-9.625-16.098-15.367-9.9805-15.457-20.082-29.449-26.77-38.707-3.7812-5.2422-6.7734-9.3867-8.0781-11.484-3.4141-5.457-9.875-10.715-19.207-15.633l-311.45-164.11c-6.3633-3.3555-8.1484-9.5898-7.6992-14.301 0.44531-4.6523 3.3398-10.363 10.141-12.418 17.836-5.3984 37.277-8.1406 57.777-8.1406 3.418 0 6.9219 0.074219 10.512 0.23828 6.3906 0.28516 12.715 2.7148 17.816 6.8359l71.398 57.73c4.6758 3.7812 10.273 5.7812 16.195 5.7812 12.969 0 23.777-9.293 25.703-22.098 1.4766-9.8242-0.29297-18.453-5.2617-25.648-9.2812-13.445-34.23-48.891-48.281-68.828-8.3555-11.859-22.012-18.938-36.531-18.938-7.8828 0-15.656 2.1055-22.492 6.0938l-16.543 9.6484c-5.7773 3.3711-12.457 5.0156-19.168 4.7734-9.875-0.39453-23.336-1.043-31.406-1.8867-5.5664-0.58203-12.398-5.7617-16.617-12.598-2.6484-4.293-6.5508-12.922-2.9414-22.504 6.5508-17.367 12.941-23.008 40.164-24.434 19.453-1.0195 134.97-4.332 202.11-6.2148 33.496-0.79297 63.125 21.625 71.094 54.211l23.637 96.602c0.67578 2.7461 0.21875 5.5781-1.293 7.9766-1.5156 2.3984-3.8789 4.0312-6.6484 4.6055-7.2852 1.5-14.434-3.1641-16.082-10.301l-7.7695-33.625c-2.1641-9.3555-9.1953-16.957-18.352-19.84-1.1211-0.35547-1.9805-1.293-2.2344-2.4414l-5.582-25.352c-3.9805-18.051-19.676-30.652-38.172-30.652l-0.72656 0.003907c-16.062 0.29297-27.902 1.832-35.191 4.5703-9.3867 3.5234-15.84 9.8086-18.656 18.172-3.5625 10.574-0.92969 23.328 7.6133 36.895 11.145 17.699 62.52 91.5 84.086 122.41 3.4688 4.9727 8.9297 7.8203 14.98 7.8203 6.8203 0 13.035-3.7422 16.207-9.7695l6.2148-11.797c2.3477-4.4453 8.1328-6.3516 12.648-4.0781 12.727 6.4062 27.785 15.844 31.332 32.055 3.9023 17.891 25.082 96.434 37.355 141.66 0.97656 3.6602 0.28906 7.2734-1.9414 10.195z"/>
</svg>