<?xml version="1.0" encoding="UTF-8"?>
<!-- Uploaded to: SVG Find, www.svgfind.com, Generator: SVG Find Mixer Tools -->
<svg fill="#000000" width="800px" height="800px" version="1.1" viewBox="144 144 512 512" xmlns="http://www.w3.org/2000/svg">
 <path d="m605.43 315.04-32.535 29.328-3.457-3.8359 31.918-29.016c4.8555-4.4141 7.2148-10.691 6.4727-17.211-0.74219-6.5195-4.4492-12.098-10.172-15.305-4.2227-2.3672-9.0039-3.6172-13.836-3.6172-8.7305 0-16.836 3.9258-22.238 10.781l-61.242 77.723c-2.3867 3.0312-7.2422 3.4297-10.094 0.82031l-53.152-48.648c-0.32812-0.30078-0.38281-0.65234-0.375-0.90234 0.011719-0.24609 0.09375-0.58984 0.44141-0.86328l37.812-29.41c4.6055-3.5781 7.9414-8.6484 9.3984-14.273 2.2539-8.7227 5.1914-22.113 6.3867-36.379 0.60156-7.2109-1.793-14.469-6.5742-19.902l-17.316-19.688c-2.3789-2.7031-5.8047-4.25-9.4023-4.25-4.4336 0-8.4492 2.2617-10.734 6.0664-1.6758 2.793-3.6914 6.082-5.9258 9.6055-7.8242 12.34-19.891 20.922-33.969 24.168-7.457 1.7109-14.359 3.6914-20.512 5.9023-6.9531 2.4883-13.254 6.7734-18.219 12.398l-37.91 42.945c-3.3672 3.8086-3.0195 9.6602 0.76563 13.039l21.02 18.773-107.85 125.43c-1.6328 1.9023-2.4141 4.3281-2.1992 6.8242 0.21484 2.4961 1.3945 4.75 3.3242 6.3438l19.766 16.352-76.836 87.785c-3.3828 3.8633-2.9961 9.7734 0.86719 13.172l12.699 11.145c2.375 2.082 5.4219 3.2305 8.5781 3.2305 4 0 7.7227-1.8008 10.207-4.9336l13.043-16.445c0.75781-0.96094 1.8945-1.5117 3.125-1.5117 0.65234 0 1.6211 0.16016 2.5352 0.91797l15.77 13.082c1.4609 1.2109 2.5352 2.8125 3.1016 4.625l4.2383 13.574c1.2539 4.0156 4.9297 6.7188 9.1445 6.7188 3.4492 0 6.5391-1.7891 8.2695-4.7852l19.023-32.957c2.4961-4.3203 5.7812-8.0234 9.7734-11.016 10.789-8.0742 32.125-24.098 45.074-33.82 7.4648-5.6055 14.254-12.121 20.176-19.363l19.801-23.848c1.7461 0.4375 3.9414 1.0312 6.0742 1.6211 6.7031 1.8633 14.09 0.089844 19.23-4.5859l50.23-45.668c3.8594-3.5078 5.8828-8.5078 5.5547-13.711l-0.25781-1.7812 1.6992 0.33984c3.0391 0.59766 6.1523-0.28516 8.4023-2.3281l81.117-73.742 6.8594 7.6133 31.879-28.73 4.9922 0.082031 4.7305-15.715zm-127.29 94.984-2.2266-0.44141c-3.3633-0.67188-6.6914 0.47266-8.9531 2.8711-1.8203 1.9375-2.7656 4.5742-2.5977 7.2266l0.15234 2.4375c0.13281 2.0938-0.68359 4.1016-2.2344 5.5117l-50.23 45.668c-2.5742 2.3477-6.2656 3.2227-9.6484 2.3008-2.207-0.60938-4.4805-1.2227-6.2734-1.6758-3.9297-1.0117-8.2266 0.39844-10.801 3.5547l-19.41 23.727c-5.4023 6.6016-11.594 12.543-18.406 17.656-12.945 9.7227-34.277 25.738-45.062 33.809-5.1055 3.8242-9.3086 8.5625-12.496 14.086l-18.289 31.691-3.8047-12.18c-1.1562-3.7031-3.3438-6.9688-6.3281-9.4375l-15.77-13.082c-2.543-2.1094-5.7578-3.2695-9.0547-3.2695-4.3672 0-8.4219 1.957-11.125 5.3789l-13.039 16.445c-0.53906 0.67578-1.3438 1.0664-2.207 1.0664-0.48047 0-1.1914-0.12109-1.8477-0.69922l-12.047-10.57 76.902-87.871c1.6602-1.8945 2.4609-4.3203 2.2617-6.8281-0.20312-2.5156-1.3789-4.7891-3.3281-6.4062l-19.77-16.355 107.82-125.39c3.2617-3.793 2.8828-9.5977-0.85156-12.941l-21.008-18.766 37.285-42.242c3.8281-4.3398 8.6719-7.6406 14.008-9.5508 5.7773-2.0742 12.289-3.9414 19.355-5.5625 16.723-3.8477 31.035-14.023 40.309-28.652 2.2812-3.6016 4.3398-6.9609 6.0547-9.8086 0.60547-1.0078 1.5938-1.1172 1.9844-1.1172 0.47656 0 1.168 0.13281 1.7383 0.78906l17.312 19.68c2.957 3.3633 4.4414 7.8477 4.0664 12.316-1.1328 13.547-3.9414 26.328-6.0977 34.672-0.89062 3.4492-2.9453 6.5703-5.7773 8.7695l-37.812 29.41c-2.6484 2.0547-4.2422 5.1602-4.375 8.5078-0.13672 3.3477 1.2031 6.5703 3.6797 8.8359l53.148 48.652c3.1641 2.8945 7.2656 4.4922 11.551 4.4922 5.2812 0 10.184-2.3789 13.453-6.5234l61.242-77.723c3.4531-4.3789 8.6406-6.8945 14.223-6.8945 3.0859 0 6.1406 0.79687 8.8398 2.3125 2.8242 1.5859 4.6562 4.3398 5.0234 7.5625 0.36719 3.2188-0.80078 6.3203-3.1992 8.4961z"/>
</svg>