<?xml version="1.0" encoding="UTF-8"?>
<!-- Uploaded to: SVG Find, www.svgfind.com, Generator: SVG Find Mixer Tools -->
<svg fill="#000000" width="800px" height="800px" version="1.1" viewBox="144 144 512 512" xmlns="http://www.w3.org/2000/svg">
 <path d="m598.59 325.2c-3.4219-3.7969-8.3164-6-13.43-6.0469l-5.8242-0.046875c-11.449 0-21.75 7.2305-25.629 17.996-7.2305 20.066-20.797 57.285-30.379 81.102-5.2305 12.988-13.094 20.141-23.379 21.262-1.8711 0.17969-3.6445-0.57031-4.8359-2.0664-1.1094-1.3984-1.5195-3.1875-1.1172-4.9258l0.26562-1.1562c0.95312-4.125 1.3594-8.3516 1.207-12.57l-1.2891-36.07c-0.50781-14.266 4.8594-28.359 14.73-38.668l60.906-63.609c3.6641-3.8281 6.7383-8.125 9.1367-12.77 5.2891-10.254 14.383-30.09 15.871-47.766 0.96875-11.496-4.8984-21.965-16.973-30.277-3.5234-2.4258-7.6367-3.7109-11.879-3.7109-9.3477 0-17.488 6.0117-20.258 14.953-1.7148 5.5469-3.418 11.82-5.0664 18.637-2.75 11.402-9.6758 21.215-19.5 27.641l-20.773 13.586c-14.391 9.4062-25.441 23.523-31.109 39.762l-41.496 118.82c-3.5938 10.309-12.562 17.527-23.391 18.855-16.395 2.0039-38.246 4.3906-49.211 4.3906l-1.0195-0.003907c-7.5781 0-14.805 2.0156-21.473 6.0078-4.3086 2.582-6.6953 7.2812-6.2227 12.266 0.46094 4.9219 3.6367 9.0352 8.2734 10.742 10.621 3.9141 24.348 7.5234 34 9.8633 2.168 0.52344 3.9414 1.8945 4.9922 3.8633 1.0508 1.9648 1.207 4.207 0.4375 6.3047-2.5508 6.9531-9.25 11.629-16.668 11.629l-0.57812-0.003906c-17.578-0.56641-38.684-3.3984-53.297-5.6719-16.281-2.5117-32.891 3.793-43.363 16.465l-59.855 72.43c-3.3828 4.0898-4.5391 9.5859-3.0938 14.695 1.4414 5.1094 5.3008 9.1836 10.32 10.902l1.6328 0.55859c2.9961 1.0234 6.1211 1.5469 9.2891 1.5469 4.2305 0 8.4883-0.96484 12.305-2.7773l228.74-108.83 2.3828 4.8594-39.797 19.504-10.625 5.207 16.539 1.4805 1.8047-4.7188 38.992-19.109-4.6289-9.4453 108.77-51.75c12.875-6.1328 21.707-18.758 23.039-32.953l7.168-76.418c0.47266-5.082-1.2188-10.172-4.6406-13.965zm-12.812 89.418c-0.99219 10.602-7.582 20.02-17.191 24.594l-342.18 162.8c-4.2734 2.0391-9.3281 2.3281-13.809 0.78516l-1.6367-0.55859c-1.8398-0.62891-3.1953-2.0625-3.7266-3.9375-0.53125-1.8711-0.12109-3.8086 1.1211-5.3086l59.844-72.441c6.9688-8.4297 17.242-13.273 28.18-13.273 1.8789 0 3.7734 0.14453 5.6367 0.4375 14.895 2.3203 36.449 5.207 54.551 5.7852l0.91016 0.015625c11.738 0 22.332-7.3906 26.367-18.402 1.7695-4.8242 1.3984-10.191-1.0273-14.727-2.4219-4.5352-6.6758-7.8281-11.668-9.0312-9.3828-2.2773-22.703-5.7734-32.867-9.5195-1.2344-0.45313-1.5078-1.457-1.5625-2.0156-0.042968-0.48047-0.011718-1.6797 1.2461-2.4336 5.0391-3.0117 10.48-4.5391 16.469-4.5391h0.007812l0.71484 0.003906c11.488 0 33.785-2.4297 50.461-4.4727 14.77-1.8008 26.984-11.648 31.891-25.691l41.496-118.82c4.9258-14.102 14.52-26.363 27.016-34.527l20.777-13.586c12.031-7.8672 20.516-19.895 23.887-33.863 1.5977-6.6055 3.2422-12.664 4.8945-18.004 1.4219-4.5938 5.6016-7.6797 10.395-7.6797 2.1445 0 4.2266 0.65625 6.0234 1.8906 8.9688 6.1758 13.188 13.211 12.535 20.906-1.3359 15.898-9.8203 34.324-14.758 43.891-1.9453 3.7656-4.4414 7.2578-7.418 10.367l-60.91 63.613c-11.789 12.309-18.203 29.141-17.594 46.18l1.2891 36.07c0.12109 3.3125-0.19922 6.6328-0.94922 9.8789l-0.26562 1.1562c-1.1133 4.8164 0.015624 9.8047 3.0977 13.676 3.3867 4.2617 8.5352 6.4688 14.035 5.9062 9.8789-1.0742 23.422-6.7461 31.844-27.676 9.6445-23.965 23.258-61.32 30.516-81.453 2.4062-6.6797 8.8008-11.168 16.059-11.168l5.5859 0.046876c2.2617 0.019531 4.3398 0.95703 5.8555 2.6367 1.5117 1.6758 2.2305 3.8359 2.0195 6.082z"/>
</svg>