<?xml version="1.0" encoding="UTF-8"?>
<!-- Uploaded to: SVG Find, www.svgfind.com, Generator: SVG Find Mixer Tools -->
<svg fill="#000000" width="800px" height="800px" version="1.1" viewBox="144 144 512 512" xmlns="http://www.w3.org/2000/svg">
 <path d="m598.14 498.46-84.613-89.871c-13.289-14.113-14.953-35.16-4.0469-51.184 17.332-25.457 28.719-41.699 32.934-46.969 9.1328-11.418 24.531-16.055 40.535-11.746 8.1328 2.1836 17.105 0.007813 23.449-5.6758 4.8477-4.3477 7.4883-10.566 7.2461-17.074-0.24219-6.5078-3.3359-12.516-8.4961-16.492l-61.859-47.66c-4.4023-3.3906-9.6289-5.1836-15.125-5.1836-11.152 0-21.027 7.4883-24.016 18.207l-40.262 144.49-4.8867-1.3711 11.719-41.75 3.1289-11.148-11.855 11.105 2.2656 4.3906-11.48 40.902 9.7578 2.7383-34.754 124.73c-1.1445 4.1055-4.9141 6.9766-9.168 6.9766-1.957 0-3.8242-0.63672-5.4023-1.8359-4.3672-3.3203-6.4883-6.9336-6.4883-11.043v-136.81c0-5.5938-2.1602-10.875-6.0781-14.875l-28.289-28.82c-7.9414-8.0898-19.98-11.688-31.078-9.2422l-15.211 3.3477c-4.1719 0.91016-8.4844-1.1328-10.434-4.8867l-1.6953-3.2695c-2.6953-5.1953-8.0039-8.4219-13.859-8.4219-2.3984 0-4.8086 0.57031-6.9688 1.6484l-96.5 48.25c-8.1445 4.0742-12.402 13.406-10.125 22.188 3.2227 12.434 7.1719 25.793 11.738 39.703 3.0078 9.168 11.512 15.328 21.156 15.324 4.0938 0 8.1211-1.1484 11.641-3.3164 18.277-11.27 52.453-31.973 75.949-43.992 6.8047-3.4805 13.793-5.2461 20.781-5.2461 23.758 0 41.508 20.094 41.508 38.055v80.832c0 14.887-8.7734 28.449-22.355 34.551l-77.242 34.707c-9.3828 4.2148-14.242 13.801-12.086 23.859 2.1562 10.059 10.512 16.816 20.801 16.816h286c11.391 0 21.754-4.0781 30.793-12.125 11.492-10.223 18.199-24.41 18.887-39.957 0.69922-15.75-5.1016-31.367-15.914-42.848zm-9.6836 75.254c-7.1367 6.3477-15.238 9.5703-24.078 9.5703h-286c-6.6641 0-10.047-4.7578-10.922-8.8281-0.875-4.0742 0.26562-9.7969 6.3438-12.527l77.242-34.707c17.203-7.7266 28.32-24.906 28.32-43.766v-80.832c0-25.656-24.117-48.16-51.613-48.16-8.6016 0-17.141 2.1367-25.383 6.3555-22.617 11.57-54.168 30.523-76.652 44.387-1.9258 1.1875-4.1172 1.8125-6.3359 1.8125-5.2695 0.003907-9.9102-3.3633-11.555-8.3711-4.5-13.711-8.3906-26.859-11.559-39.09-1.0859-4.1953 0.95703-8.6602 4.8633-10.613l96.5-48.25c2.6406-1.3281 6-0.20312 7.3398 2.3867l1.6953 3.2695c4.0273 7.7656 13.004 11.98 21.57 10.102l15.211-3.3477c7.7422-1.7031 16.152 0.80469 21.699 6.457l28.285 28.816c2.0547 2.0977 3.1875 4.8633 3.1875 7.7969v136.82c0 7.2734 3.6211 13.875 10.477 19.082 3.3516 2.5508 7.332 3.8984 11.52 3.8984 8.7734 0 16.547-5.9102 18.902-14.371l76.371-274.08c2.0781-7.4727 8.6719-10.812 14.281-10.812 3.2422 0 6.3398 1.0664 8.957 3.082l61.859 47.66c2.7695 2.1367 4.4336 5.3633 4.5625 8.8633 0.13281 3.4961-1.2891 6.8398-3.8906 9.1758-3.8203 3.4258-9.2148 4.75-14.078 3.4414-19.879-5.3516-39.434 0.67188-51.055 15.191-4.4375 5.5469-15.676 21.559-33.398 47.598-13.594 19.965-11.52 46.199 5.043 63.793l84.617 89.871c8.9531 9.5078 13.754 22.438 13.176 35.477-0.56641 12.793-6.0703 24.461-15.504 32.852z"/>
</svg>