<?xml version="1.0" encoding="UTF-8"?>
<!-- Uploaded to: SVG Find, www.svgfind.com, Generator: SVG Find Mixer Tools -->
<svg fill="#000000" width="800px" height="800px" version="1.1" viewBox="144 144 512 512" xmlns="http://www.w3.org/2000/svg">
 <path d="m610.89 286.36c-2.7539-3.5352-7.9805-4.6719-11.926-2.5078-4.1836 2.2891-8.2148 5.7812-11.98 10.383-7.1289 8.6992-22.559 16.922-31.746 16.922-1.5039 0-2.4297-0.23438-2.9375-0.42969-2.9414-1.1484-7.0117-3.0742-11.73-5.3086-9.8438-4.6641-22.098-10.469-32.086-12.824l-4.6992-1.0703c-7.7695-1.75-22.234-5-21.391-8.9688 0.89844-4.2578 8.2891-5.7695 14.34-5.7695 2.7148 0 5.5547 0.28125 8.0039 0.80469 4.4258 0.93359 15.957 3.1094 27.395 3.1094 9.1055 0 15.887-1.3516 20.734-4.1289 3.7891-2.168 6.3906-5.6211 7.5234-9.9844 3.1641-12.156-5.7305-27.461-6.7578-29.172-1.4883-2.4727-3.3242-5.0312-5.0977-7.5-3.7656-5.2461-7.6602-10.676-8.4844-15.41-1.4492-8.3516-8.1016-19.09-13.629-24.961-3.9297-4.1641-10.801-4.9023-15.496-1.6133-8.7617 6.1211-29.02 20.27-36.953 25.738-3.3359 2.3008-8.8789 3.4688-14.746 4.6992-9.8633 2.0781-21.039 4.4297-28.609 13.191-5.5898 6.4688-10.977 10.098-14.508 12.012-1.4414 0.77344-3.2461 0.77344-4.6836 0.019531l-79.301-41.801c-1.8242-0.96094-3.8672-1.4648-5.918-1.4648-4.7734 0-9.1016 2.6328-11.293 6.875l-54.723 106.05c-6.8008 13.184-7.8359 28.746-2.832 42.703l9.4805 26.461c3.3203 9.2734-0.58203 19.395-9.2891 24.07-14.805 7.957-26.184 15.523-33.82 22.477l-1.0625 0.96484c-17.945 16.332-42.523 38.695-33.66 66.758 7.043 22.305 19 53.312 28.605 78.223l3.9336 10.219c6.5508 17.074 28.504 28.992 53.375 28.992 15.691 0 30.262-4.9805 41.02-14.023 25.641-21.555 32.09-44.902 35.945-58.848 0.50781-1.8359 0.96875-3.5117 1.4336-5.0078 9.8203-31.805 33.172-54.566 67.531-65.828 19.027-6.2344 36.359-12.664 51.793-19.145l5.1875 10.801 39.234-18.848 4.832 1.5039 9.0938-13.938-10.691 5.1367-40.043 19.238-2.8398-5.9141c28.391-12.266 49.754-24.664 62.109-36.262 19.391-18.207 63.574-80.805 73.059-118.6 0.70312-2.8125 0.085938-5.7383-1.6953-8.0234zm-78.453 119.07c-18.219 17.105-60.066 37.203-114.81 55.141-37.688 12.348-63.344 37.457-74.199 72.609-0.48828 1.582-0.98047 3.3633-1.5195 5.3086-3.7617 13.613-9.4453 34.191-32.629 53.676-8.8945 7.4766-21.098 11.594-34.355 11.594-20.359 0-38.742-9.3984-43.711-22.348l-3.9414-10.234c-9.5547-24.777-21.445-55.617-28.391-77.609-6.8672-21.75 13.996-40.734 30.758-55.984l1.0625-0.96875c6.9102-6.2969 17.891-13.562 31.75-21.012 13.25-7.1172 19.195-22.543 14.133-36.676l-9.4805-26.461c-4.0352-11.266-3.2031-23.828 2.2891-34.461l54.723-106.05c0.48438-0.94141 1.3984-1.2734 2.0938-1.2734 0.375 0 0.74219 0.089844 1.0859 0.27344l79.309 41.801c4.4375 2.3359 10.008 2.3086 14.422-0.070313 4.2969-2.3203 10.809-6.6914 17.426-14.352 5.2891-6.1211 14.246-8.0078 22.906-9.832 6.9141-1.4492 13.449-2.8242 18.496-6.3086 7.9453-5.4805 28.227-19.648 37.004-25.777 0.47656-0.32812 1.1094-0.75 2.0312 0.23438 5.0234 5.332 10.043 14.32 10.965 19.629 1.2305 7.0781 6.0352 13.773 10.273 19.68 1.7305 2.4102 3.3672 4.6836 4.6367 6.8047 3.125 5.1953 7.1953 15.141 5.6094 21.23-0.44141 1.6914-1.2578 2.8086-2.6523 3.6094-2.1953 1.2578-6.6836 2.7539-15.59 2.7539-10.758 0-22.051-2.207-25.254-2.8867-3.1758-0.67188-6.6836-1.0273-10.145-1.0273-13.473 0-22.621 5.2266-24.469 13.977-2.9531 13.973 14.902 17.984 29.25 21.211l4.5938 1.0508c8.9258 2.1016 20.625 7.6445 30.031 12.102 4.8945 2.3164 9.1211 4.3203 12.41 5.5938 1.9414 0.75781 4.1914 1.1367 6.6875 1.1367 12.348 0 30.551-9.4844 39.754-20.715 2.3711-2.8945 4.7969-5.1797 6.9727-6.7578-10.035 35.723-51.734 94.688-69.523 111.39z"/>
</svg>