<?xml version="1.0" encoding="UTF-8"?>
<!-- Uploaded to: SVG Find, www.svgfind.com, Generator: SVG Find Mixer Tools -->
<svg fill="#000000" width="800px" height="800px" version="1.1" viewBox="144 144 512 512" xmlns="http://www.w3.org/2000/svg">
 <path d="m606.73 572.76-27.719-38.531c-5.8281-8.0977-8.0352-18.34-6.0586-28.094 6.5039-32.098 18.297-89.969 24.168-116.96 3.7266-17.156-1.1758-27.812-5.9453-33.734-6.6914-8.3008-17.715-13.062-30.246-13.062-7.1484 0-14.262 1.5508-20.809 4.5977l-60.625 32.066c-6.0469 3.1992-12.848 4.8906-19.656 4.8906-14.305 0-27.504-7.1484-35.309-19.125l-6.4766-9.9414c-2.8516-4.3672-4.4883-9.4336-4.7383-14.648l-4.6641-96.539c-1.3047-27.035-23.496-48.215-50.527-48.215-6.1758 0-12.277 1.1406-18.145 3.3906l-37.668 14.426-1.9062-4.9609 51.004-19.57-15.895-2.8672-2.1602 4.4141-39.438 15.133 3.7031 9.6523-57.113 21.883c-5.5586 2.125-9.8633 6.332-12.133 11.832-2.2656 5.5039-2.168 11.523 0.28125 16.957l0.59375 1.3125c6.0352 13.379 4.1836 28.883-4.8203 40.465l-25.129 32.309c-16.734 21.508-13.648 52.266 7.0312 70.027l72.125 61.957c14.98 12.867 32.062 22.605 50.762 28.945l192.59 65.285c12.785 4.332 24.488 11.758 33.852 21.469l20.805 21.578c3.125 3.2383 7.3242 5.0234 11.828 5.0234 4.3867 0 8.5117-1.7109 11.617-4.8164l4.2148-4.2148c8.7148-8.7188 9.8164-22.316 2.6094-32.328zm-9.7266 25.223-4.207 4.2148c-2.4492 2.4492-6.7188 2.4023-9.1094-0.082031l-20.805-21.578c-10.469-10.859-23.562-19.164-37.855-24.008l-192.59-65.285c-17.484-5.9258-33.445-15.027-47.445-27.055l-72.125-61.949c-16.602-14.262-19.082-38.961-5.6445-56.234l25.129-32.312c11.301-14.523 13.621-33.977 6.0547-50.77l-0.59375-1.3125c-1.3008-2.8789-1.3555-6.0703-0.15234-8.9922 1.207-2.918 3.4922-5.1484 6.4375-6.2773l99.473-38.113c4.7188-1.8047 9.6133-2.7227 14.555-2.7227 21.656 0 39.445 16.98 40.488 38.656l4.6641 96.539c0.33984 6.9922 2.5352 13.785 6.3594 19.648l6.4766 9.9414c9.6641 14.836 26.012 23.688 43.727 23.688 8.4414 0 16.859-2.0938 24.355-6.0586l60.391-31.949c5-2.3203 10.648-3.5469 16.344-3.5469 9.4766 0 17.648 3.3984 22.422 9.3203 4.8711 6.0391 6.2344 14.789 3.9492 25.293-5.8828 27.055-17.684 84.98-24.199 117.1-2.5312 12.488 0.29297 25.598 7.7539 35.957l27.719 38.531c4.3125 5.9961 3.6523 14.133-1.5742 19.355z"/>
</svg>