<?xml version="1.0" encoding="UTF-8"?>
<!-- Uploaded to: SVG Find, www.svgfind.com, Generator: SVG Find Mixer Tools -->
<svg fill="#000000" width="800px" height="800px" version="1.1" viewBox="144 144 512 512" xmlns="http://www.w3.org/2000/svg">
 <path d="m609.53 194.96c-3.1953-6.5742-10.02-10.254-17.613-8.7344l-6.625 1.3438c-16.93 3.4258-31.781 19.711-33.805 37.074-1.8867 16.164-5.168 23.23-7.5898 26.316l-46.078 58.664c-1.7773 2.2656-4.3281 3.7422-7.1719 4.1602l-92.312 13.52c-7.9609 1.1641-15.086 5.293-20.059 11.625l-99.883 127.02-27.141-21.316c-4.293-3.3672-11.023-2.5547-14.398 1.7305l-45.82 58.348c-3.4961 4.4453-2.7188 10.906 1.7305 14.402l29.414 23.223-21.438 27.293c-2.8984 3.6953-4.5469 8.125-4.7617 12.82l-0.60547 13.285c-0.21875 4.8438 1.5 9.4414 4.8438 12.941 3.3086 3.4609 7.9336 5.4492 12.691 5.4531h0.003906c1.0703 0 2.1602-0.097656 3.2578-0.30469l14.93-2.7891c5.3516-0.99609 10.148-3.9062 13.508-8.1836l38.867-49.453 8.0352 6.3164 26.402-33.582 4.9102-0.76562 1.9766-16.215-7.1953 9.1523-26.949 34.277-4.0391-3.1758 140.95-179.33 59.246 46.531c4.2891 3.3789 11.035 2.5586 14.402-1.7305l50.082-63.77c1.6953-2.1523 2.4453-4.8359 2.1172-7.5586-0.32812-2.7188-1.6914-5.1484-3.8477-6.8438l-24.641-19.473 82.777-105.39c3.8242-4.875 4.5234-11.336 1.832-16.875zm-9.8203 10.59-82.777 105.39c-1.6953 2.1523-2.4453 4.8359-2.1172 7.5586s1.6953 5.1484 3.8477 6.8398l24.641 19.477-50.219 63.785-59.246-46.535c-4.2969-3.3672-11.031-2.5586-14.402 1.7305l-182.82 232.77c-1.8359 2.3359-4.457 3.9258-7.3828 4.4727l-14.93 2.7891c-0.47266 0.085937-0.93359 0.13281-1.3945 0.13281-1.9961-0.003906-3.9453-0.84375-5.3516-2.3125-1.4102-1.4727-2.1328-3.4141-2.0391-5.4609l0.60547-13.281c0.11719-2.5664 1.0195-4.9922 2.6055-7.0117l21.434-27.293c1.6953-2.1523 2.4453-4.8359 2.1172-7.5586-0.32812-2.7227-1.6953-5.1484-3.8477-6.8398l-29.414-23.227 45.957-58.359 27.137 21.312c4.2969 3.3828 11.035 2.5586 14.402-1.7305l99.758-127c3.3555-4.2734 8.1641-7.0586 13.539-7.8477l92.312-13.52c5.4375-0.79688 10.301-3.6172 13.691-7.9336l46.078-58.664c4.6953-5.9805 7.957-16.551 9.6875-31.414 1.4961-12.816 13.273-25.773 25.73-28.297l6.625-1.3438c3.1758-0.66406 5.543 1.3438 6.4609 3.2227 0.47266 0.98047 1.3594 3.543-0.6875 6.1484z"/>
</svg>