<?xml version="1.0" encoding="UTF-8"?>
<!-- Uploaded to: SVG Find, www.svgfind.com, Generator: SVG Find Mixer Tools -->
<svg fill="#000000" width="800px" height="800px" version="1.1" viewBox="144 144 512 512" xmlns="http://www.w3.org/2000/svg">
 <path d="m597.87 201.09c-1.9375-3.2969-5.6484-5.1445-9.6211-4.4414-14.859 2.6367-51.816 9.2305-73.973 13.508-4.4336 0.85938-9.1992 1.293-14.156 1.293h-0.003907c-20.52-0.003907-41.523-7.4023-55.422-12.301-1.9297-0.68359-3.7422-1.3203-5.4258-1.8945-3.8359-1.3125-7.4961-1.9531-11.18-1.9531-9.5625 0-16.957 4.3438-24.105 8.543-3.0508 1.793-5.9336 3.4883-8.9922 4.8672-3.8789 1.7539-7.1406 2.5703-10.27 2.5703-5.793 0-11.863-2.9336-20.949-10.117-5.1484-4.0742-11.621-8.1719-19.234-12.188-3.8555-2.0273-8.1758-3.0977-12.512-3.0977-8.1328 0-15.715 3.6289-20.801 9.957-7.3398 9.1328-16.645 20.715-21.57 26.879-9.3203 11.652-14.91 22.668-16.613 32.73-1.0078 5.9531-2.7539 24.023-4.2969 39.965-0.86328 8.9375-1.625 16.828-2.0664 20.551-1.3047 10.98-0.81641 19.363 1.4414 24.914 2.293 5.6367 17.48 35.188 17.633 35.484 4.0156 7.7969 12.113 14.762 22.801 19.609 4.6602 2.1133 12.562 3.8281 23.48 5.0977 1.6055 0.1875 3.0039 1.0898 3.8281 2.4805 0.82422 1.3867 0.95312 3.0391 0.35156 4.5352-2.3555 5.8711-5.2148 12.965-7.875 19.457-5.8555 14.32-8.9141 34.402-9.0898 59.68-0.13281 19.496-28.797 31.18-50.344 38.27-26.047 8.5664-44.316 21.523-52.836 37.465-6.0469 11.309-11.418 27.289-14.855 38.703-1.4844 4.9375 1.5547 9.9453 7.2227 11.906 1.0586 0.36719 2.1484 0.55078 3.2383 0.55078 4.6445 0 8.1484-3.2852 9.4375-6.3398 2.6836-6.3828 9.4883-22.074 14.695-29.953 4.9805-7.5312 22.859-17.199 47.824-25.859 12.949-4.4922 32.453-7.5977 44.105-9.4531 2.7461-0.4375 5.0547-0.80469 6.7539-1.1055 4.1211-0.73047 7.0312-4.4414 6.7656-8.6367-0.042968-0.72266 0.011719-3.8477 0.066406-4.4414 0.078126-0.57422 0.32422-1.1055 0.70703-1.5312 7.2188-8.0352 17.148-20.117 20.004-32.238l0.62891-2.6602c2.4766-10.52 4.6172-19.602 8.3438-32.508 4.2656-14.746 14.832-26.535 28.996-32.344l72.23-29.629c18.066-7.4102 33.242-20.887 42.734-37.949l17.82-32.023 4.7812 2.6797-21.293 38.02-5.6875 10.152 14.203-8.0469-1.1758-4.8242 20.863-37.25-9.2266-5.168 62.715-112.71c1.6211-2.8984 1.582-6.3398-0.097656-9.1992zm-91.777 153.45c-8.375 15.059-21.77 26.949-37.711 33.488l-72.23 29.629c-17.047 6.9922-29.766 21.18-34.895 38.918-3.8008 13.152-5.9688 22.352-8.4766 33.004l-0.625 2.6562c-2.5938 10.996-13.945 23.629-17.676 27.781-1.7422 1.9414-2.8555 4.332-3.2109 6.9219-0.11719 0.85938-0.17188 3.0938-0.17188 4.7539-1.4023 0.23438-3.0703 0.5-4.9492 0.79688-11.984 1.9102-32.043 5.1016-45.836 9.8867-19.672 6.8242-44.828 17.543-52.969 29.855-5.6523 8.5547-12.73 24.832-15.766 31.672-0.14453-0.058594-0.26953-0.12109-0.375-0.17969 4.6602-15.336 9.4336-27.762 13.824-35.98 7.2656-13.594 23.535-24.867 47.055-32.605 26.598-8.75 57.148-22.098 57.324-47.844 0.16797-23.977 2.9688-42.789 8.3359-55.91 2.6641-6.5117 5.5352-13.625 7.8984-19.52 1.7891-4.4609 1.4023-9.3828-1.0547-13.512s-6.6055-6.8164-11.379-7.3711c-9.5938-1.1172-16.859-2.6289-20.457-4.2578-8.6133-3.9102-14.992-9.2422-17.969-15.012-5.2422-10.18-15.68-30.793-17.254-34.664-0.90625-2.2227-2.207-7.7539-0.76563-19.887 0.44531-3.7617 1.2188-11.738 2.0938-20.773 1.4492-14.992 3.25-33.648 4.1953-39.246 1.4141-8.3477 6.3008-17.797 14.531-28.086 4.9219-6.1562 14.219-17.73 21.555-26.859 4.832-6.0039 13.785-7.8555 20.656-4.2344 7.0625 3.7227 13.008 7.4805 17.672 11.164 11.055 8.7422 18.949 12.309 27.246 12.309 4.5586 0 9.2852-1.1367 14.453-3.4727 3.5508-1.6055 6.8086-3.5156 9.9531-5.3633 6.5234-3.8359 12.16-7.1445 18.961-7.1445 2.5469 0 5.1289 0.45703 7.8945 1.4062 1.6562 0.56641 3.4414 1.1953 5.3398 1.8633 14.551 5.125 36.539 12.875 58.797 12.879h0.003906c5.6055 0 11.02-0.49609 16.086-1.4766 21.281-4.1094 56.32-10.371 72.008-13.168z"/>
</svg>