<?xml version="1.0" encoding="UTF-8"?>
<!-- Uploaded to: SVG Find, www.svgfind.com, Generator: SVG Find Mixer Tools -->
<svg fill="#000000" width="800px" height="800px" version="1.1" viewBox="144 144 512 512" xmlns="http://www.w3.org/2000/svg">
 <path d="m609.79 304.15c-15.871-11.867-53.633-40.082-61.555-45.789-9.0898-6.543-13.359-13.266-18.062-23.379-2.7969-6.0039-6.5195-9.3125-9.8086-12.23-3.0898-2.7461-6.0117-5.3359-8.582-10.41-4.625-9.1289-13.367-14.578-23.383-14.578-2.75 0-5.4102 0.45312-7.6875 1.3047l-30.336 11.371c-12.586 4.7188-16.027 25.035-15.152 41 0.55078 10.215 2.5469 29.062 4.1172 43.078 0.64062 5.6602-0.015626 11.484-1.8984 16.848-0.53516 1.5469-1.1094 3.1406-1.668 4.6836-2.4414 6.707-6.0078 12.879-10.598 18.348-16.719 19.895-28.871 34.012-34.199 39.754-6.2969 6.7773-11.867 9.5938-14.625 10.672-4.0039 1.5625-6.4648 5.4922-6.125 9.7734 0.27344 3.5078 0.85938 6.9766 1.7344 10.254-77.504 29.91-162.32 62.539-167.93 64.43-11.246 3.793-21.23 20.184-17.262 35.629 2.2266 8.6367 13.395 41.449 22.371 67.461 5.0117 14.504 17.395 25.133 32.324 27.738 8.1445 1.418 16.715 2.1367 25.457 2.1367 4.8867 0 9.8359-0.22656 14.699-0.66797 5.3281-0.48438 10.051-3.3438 12.949-7.8438 2.9102-4.5117 3.5703-10.012 1.8047-15.082l-5.3359-15.371c-1.293-3.7188-3.2812-7.0664-5.9219-9.9531-11.41-12.477-38.199-38.031-49.191-48.441-1.1641-1.1016-1.457-2.8086-0.73438-4.2461l1.9844-3.9297c0.72656-1.4453 1.9609-2.5625 3.4727-3.1484l102.84-39.941 1.6914 4.4023-40.801 15.676-10.895 4.1836 16.117 2.8984 2.1836-4.4766 39.977-15.355-3.5234-9.1758 94.082-36.543c5.6211-2.1836 8.6172-8.4062 6.8281-14.168l-2.3984-7.6797c-0.27734-0.89844 0.18359-1.8633 1.0586-2.2031l119.67-46.57c2.8984-1.1328 5.4922-2.9883 7.4844-5.3633l3.8359-4.5664c0.92578-1.1016 2.1289-1.9531 3.4805-2.457l24.836-9.3086c3.6992-1.3867 6.3398-4.6719 6.9023-8.582 0.55469-3.9141-1.0625-7.8125-4.2266-10.18zm-6.25 9.2188-24.836 9.3086c-2.9922 1.1172-5.6602 3.0039-7.707 5.4453l-3.8359 4.5664c-0.90625 1.0781-2.0742 1.9141-3.3828 2.4258l-119.66 46.57c-5.8398 2.2695-8.957 8.7344-7.0977 14.727l2.3984 7.6836c0.21094 0.66797-0.14062 1.3867-0.78906 1.6406l-201.66 78.324c-3.8633 1.5039-7.0234 4.3672-8.8789 8.0625l-1.9805 3.9219c-2.7656 5.4844-1.6328 12.004 2.8242 16.227 10.906 10.332 37.488 35.688 48.676 47.918 1.6953 1.8594 2.9844 4.0195 3.8203 6.4219l5.3359 15.371c0.72656 2.0938 0.45312 4.3594-0.74609 6.2227-1.1953 1.8477-3.1289 3.0195-5.3164 3.2188-12.684 1.1641-25.668 0.70312-37.484-1.3594-11.277-1.9688-20.648-10.023-24.449-21.027-12.602-36.512-20.461-60.191-22.129-66.672-2.7617-10.73 5.2578-21.621 10.648-23.438 7.25-2.4453 130.69-50.047 168.34-64.578 4.8281-1.8672 7.4844-7.0391 6.1758-12.039-0.69141-2.625-1.1602-5.3633-1.3984-8.1445 4.3672-1.7617 10.93-5.4453 18.027-13.086 6.9766-7.5117 22.633-25.969 34.539-40.133 5.3594-6.3789 9.5234-13.586 12.375-21.426 0.57031-1.5859 1.1523-3.2109 1.707-4.7852 2.3867-6.793 3.2188-14.18 2.4141-21.352-1.2773-11.363-3.5078-31.992-4.0781-42.492-0.83203-15.219 2.9297-28.793 8.5586-30.906l30.336-11.371c1.1328-0.42578 2.5977-0.66016 4.1172-0.66016 2.2891 0 10.066 0.64844 14.305 9 3.4453 6.7969 7.4102 10.316 10.906 13.422 3.0352 2.6914 5.4297 4.8203 7.332 8.9062 5.168 11.117 10.543 19.57 21.344 27.352 7.8555 5.6602 45.559 33.832 61.406 45.68 0.078125 0.058594 0.29297 0.21875 0.23828 0.57812-0.050781 0.34766-0.29688 0.44141-0.39062 0.47656z"/>
</svg>